<?xml version="1.0" encoding="UTF-8" standalone="no"?>
<!DOCTYPE svg PUBLIC "-//W3C//DTD SVG 1.1//EN" "http://www.w3.org/Graphics/SVG/1.1/DTD/svg11.dtd">
<svg xmlns="http://www.w3.org/2000/svg" version="1.1" viewBox="0.00 0.00 1476.00 674.00">
<g stroke-width="2.00" fill="none" stroke-linecap="butt">
<path stroke="#e2999b" vector-effect="non-scaling-stroke" d="
  M 657.79 106.46
  A 0.57 0.57 0.0 0 1 657.91 107.26
  L 496.46 320.37
  A 0.57 0.57 0.0 0 0 496.92 321.28
  L 594.18 321.28
  A 0.57 0.57 0.0 0 0 594.63 321.05
  L 719.07 156.80
  A 0.57 0.57 0.0 0 1 719.86 156.68
  L 744.93 174.93
  A 0.57 0.57 0.0 0 0 745.72 174.81
  L 826.65 66.83
  A 0.57 0.57 0.0 0 0 826.19 65.92
  L 603.86 65.92
  A 0.57 0.57 0.0 0 0 603.53 66.95
  L 657.79 106.46"
/>
<path stroke="#a3a3a3" vector-effect="non-scaling-stroke" d="
  M 892.37 84.74
  A 0.32 0.32 0.0 0 0 892.11 84.87
  L 712.33 321.17
  A 0.32 0.32 0.0 0 0 712.59 321.68
  L 761.15 321.68
  A 0.32 0.32 0.0 0 0 761.41 321.55
  L 941.20 85.25
  A 0.32 0.32 0.0 0 0 940.94 84.74
  L 892.37 84.74"
/>
<path stroke="#808080" vector-effect="non-scaling-stroke" d="
  M 969.78 126.67
  A 0.30 0.30 0.0 0 0 969.25 126.57
  L 821.22 321.15
  A 0.30 0.30 0.0 0 0 821.46 321.63
  L 899.62 321.63
  A 0.30 0.30 0.0 0 0 899.86 321.51
  L 991.72 202.27
  A 0.30 0.30 0.0 0 0 991.77 202.00
  L 969.78 126.67"
/>
<path stroke="#a3a3a3" vector-effect="non-scaling-stroke" d="
  M 750.32 191.80
  A 0.38 0.38 0.0 0 0 749.79 191.87
  L 651.50 321.04
  A 0.38 0.38 0.0 0 0 651.81 321.65
  L 668.41 321.65
  A 0.38 0.38 0.0 0 0 668.71 321.50
  L 761.63 200.88
  A 0.38 0.38 0.0 0 0 761.56 200.35
  L 750.32 191.80"
/>
<path stroke="#808080" vector-effect="non-scaling-stroke" d="
  M 360.36 363.07
  C 342.50 364.47 324.61 369.62 309.53 379.43
  C 293.09 390.13 281.98 407.31 282.64 427.33
  C 283.14 442.72 292.64 454.49 305.64 461.62
  C 324.71 472.06 347.36 473.64 369.00 471.95
  C 386.85 470.54 404.75 465.40 419.82 455.59
  C 436.27 444.89 447.38 427.71 446.72 407.69
  C 446.22 392.30 436.72 380.53 423.71 373.40
  C 404.65 362.96 381.99 361.38 360.36 363.07"
/>
<path stroke="#808080" vector-effect="non-scaling-stroke" d="
  M 223.60 415.72
  L 209.01 469.69
  A 0.59 0.59 0.0 0 0 209.58 470.44
  L 246.34 470.46
  A 0.95 0.94 7.7 0 0 247.25 469.77
  L 275.79 365.19
  A 0.50 0.49 7.9 0 0 275.31 364.56
  L 242.29 364.56
  A 4.12 4.09 -66.0 0 0 239.52 365.64
  L 174.39 425.53
  A 0.41 0.41 0.0 0 1 173.76 425.43
  L 140.21 365.52
  A 1.91 1.89 -14.4 0 0 138.55 364.55
  L 106.73 364.56
  A 0.91 0.90 7.5 0 0 105.85 365.23
  L 76.85 469.89
  A 0.42 0.42 0.0 0 0 77.26 470.42
  L 114.07 470.45
  A 0.93 0.92 -82.1 0 0 114.96 469.77
  L 130.00 415.57
  A 0.44 0.44 0.0 0 1 130.81 415.46
  L 156.53 459.40
  A 1.22 1.21 -15.0 0 0 157.58 460.00
  L 173.64 460.00
  A 3.58 3.57 23.5 0 0 176.08 459.04
  L 223.04 415.38
  A 0.34 0.34 0.0 0 1 223.60 415.72"
/>
<path stroke="#808080" vector-effect="non-scaling-stroke" d="
  M 600.02 415.70
  L 585.44 469.68
  A 0.59 0.59 0.0 0 0 586.01 470.43
  L 622.77 470.45
  A 0.95 0.94 7.7 0 0 623.68 469.76
  L 652.22 365.16
  A 0.50 0.49 7.9 0 0 651.74 364.53
  L 618.72 364.53
  A 4.12 4.09 -66.0 0 0 615.95 365.61
  L 550.81 425.51
  A 0.41 0.41 0.0 0 1 550.18 425.41
  L 516.62 365.49
  A 1.91 1.89 -14.4 0 0 514.96 364.52
  L 483.13 364.54
  A 0.91 0.90 7.5 0 0 482.25 365.21
  L 453.25 469.89
  A 0.42 0.42 0.0 0 0 453.66 470.42
  L 490.48 470.44
  A 0.93 0.92 -82.1 0 0 491.37 469.76
  L 506.41 415.56
  A 0.44 0.44 0.0 0 1 507.22 415.45
  L 532.95 459.39
  A 1.22 1.21 -15.0 0 0 534.00 459.99
  L 550.07 459.99
  A 3.58 3.57 23.5 0 0 552.51 459.03
  L 599.46 415.36
  A 0.34 0.34 0.0 0 1 600.02 415.70"
/>
<path stroke="#808080" vector-effect="non-scaling-stroke" d="
  M 776.86 406.16
  A 0.47 0.47 0.0 0 0 776.40 405.56
  L 712.37 405.56
  A 0.47 0.47 0.0 0 1 711.91 404.96
  L 716.59 388.07
  A 0.47 0.47 0.0 0 1 717.05 387.73
  L 790.24 387.73
  A 0.47 0.47 0.0 0 0 790.70 387.39
  L 796.85 365.16
  A 0.47 0.47 0.0 0 0 796.40 364.56
  L 682.74 364.56
  A 0.47 0.47 0.0 0 0 682.28 364.90
  L 653.22 469.84
  A 0.47 0.47 0.0 0 0 653.68 470.44
  L 770.27 470.44
  A 0.47 0.47 0.0 0 0 770.73 470.10
  L 776.86 447.96
  A 0.47 0.47 0.0 0 0 776.40 447.36
  L 700.85 447.36
  A 0.47 0.47 0.0 0 1 700.39 446.76
  L 705.51 428.28
  A 0.47 0.47 0.0 0 1 705.97 427.94
  L 770.46 427.94
  A 0.47 0.47 0.0 0 0 770.92 427.60
  L 776.86 406.16"
/>
<path stroke="#808080" vector-effect="non-scaling-stroke" d="
  M 864.06 428.68
  Q 876.13 443.24 898.30 469.64
  A 2.20 2.18 -19.7 0 0 899.98 470.43
  L 932.05 470.43
  A 1.21 1.21 0.0 0 0 933.22 469.53
  L 962.11 365.24
  A 0.57 0.57 0.0 0 0 961.56 364.52
  L 922.49 364.52
  A 0.97 0.96 -82.1 0 0 921.56 365.23
  L 905.97 421.51
  A 0.54 0.54 0.0 0 1 905.03 421.72
  Q 896.47 411.59 892.05 406.26
  Q 879.97 391.70 857.81 365.30
  A 2.20 2.18 -19.7 0 0 856.12 364.51
  L 824.05 364.51
  A 1.21 1.21 0.0 0 0 822.88 365.41
  L 793.99 469.70
  A 0.57 0.57 0.0 0 0 794.54 470.42
  L 833.61 470.42
  A 0.97 0.96 -82.1 0 0 834.54 469.71
  L 850.13 413.43
  A 0.54 0.54 0.0 0 1 851.07 413.22
  Q 859.63 423.35 864.06 428.68"
/>
<path stroke="#808080" vector-effect="non-scaling-stroke" d="
  M 971.25 387.56
  A 0.61 0.61 0.0 0 0 971.84 388.33
  L 1015.15 388.33
  A 0.61 0.61 0.0 0 1 1015.74 389.10
  L 993.42 469.67
  A 0.61 0.61 0.0 0 0 994.01 470.44
  L 1034.15 470.44
  A 0.61 0.61 0.0 0 0 1034.73 469.99
  L 1057.23 388.78
  A 0.61 0.61 0.0 0 1 1057.81 388.33
  L 1101.81 388.33
  A 0.61 0.61 0.0 0 0 1102.39 387.88
  L 1108.65 365.32
  A 0.61 0.61 0.0 0 0 1108.06 364.55
  L 978.09 364.55
  A 0.61 0.61 0.0 0 0 977.51 365.00
  L 971.25 387.56"
/>
<path stroke="#808080" vector-effect="non-scaling-stroke" d="
  M 1162.23 365.16
  A 0.49 0.48 7.7 0 0 1161.76 364.55
  L 1121.62 364.55
  A 0.87 0.86 7.3 0 0 1120.78 365.19
  Q 1110.63 402.02 1107.32 413.48
  Q 1102.82 429.03 1102.91 434.70
  C 1103.13 449.08 1111.91 459.19 1124.49 465.14
  Q 1131.49 468.45 1136.97 469.61
  Q 1163.71 475.28 1190.76 470.04
  C 1211.98 465.94 1229.49 454.42 1238.33 434.54
  Q 1240.69 429.23 1243.55 418.80
  Q 1253.11 383.88 1258.34 365.14
  A 0.47 0.47 0.0 0 0 1257.89 364.54
  L 1218.55 364.54
  A 1.14 1.13 7.7 0 0 1217.45 365.37
  Q 1204.78 411.49 1200.87 425.11
  Q 1199.38 430.29 1195.76 435.85
  C 1187.70 448.26 1170.55 449.56 1157.55 446.38
  C 1145.09 443.34 1143.39 433.09 1146.41 422.21
  Q 1155.50 389.49 1162.23 365.16"
/>
<path stroke="#808080" vector-effect="non-scaling-stroke" d="
  M 1355.39 459.99
  A 0.40 0.40 0.0 0 0 1355.66 459.88
  L 1403.81 415.63
  A 0.40 0.40 0.0 0 1 1404.47 416.03
  L 1389.54 469.93
  A 0.40 0.40 0.0 0 0 1389.93 470.44
  L 1427.33 470.44
  A 0.40 0.40 0.0 0 0 1427.71 470.15
  L 1456.81 365.06
  A 0.40 0.40 0.0 0 0 1456.42 364.55
  L 1421.63 364.55
  A 0.40 0.40 0.0 0 0 1421.36 364.66
  L 1355.15 425.52
  A 0.40 0.40 0.0 0 1 1354.53 425.42
  L 1320.54 364.75
  A 0.40 0.40 0.0 0 0 1320.20 364.55
  L 1287.10 364.55
  A 0.40 0.40 0.0 0 0 1286.72 364.84
  L 1257.61 469.94
  A 0.40 0.40 0.0 0 0 1258.00 470.45
  L 1295.26 470.45
  A 0.40 0.40 0.0 0 0 1295.64 470.16
  L 1310.85 415.24
  A 0.40 0.40 0.0 0 1 1311.58 415.15
  L 1337.35 459.79
  A 0.40 0.40 0.0 0 0 1337.70 459.99
  L 1355.39 459.99"
/>
<path stroke="#808080" vector-effect="non-scaling-stroke" d="
  M 359.62 388.12
  C 342.83 390.96 328.07 401.27 324.88 418.66
  C 319.89 445.73 351.42 450.03 369.74 446.93
  C 386.53 444.09 401.28 433.77 404.48 416.39
  C 409.46 389.31 377.94 385.02 359.62 388.12"
/>
</g>
<path fill="#ffffff" d="
  M 1476.00 0.00
  L 1476.00 674.00
  L 0.00 674.00
  L 0.00 0.00
  L 1476.00 0.00
  Z
  M 657.79 106.46
  A 0.57 0.57 0.0 0 1 657.91 107.26
  L 496.46 320.37
  A 0.57 0.57 0.0 0 0 496.92 321.28
  L 594.18 321.28
  A 0.57 0.57 0.0 0 0 594.63 321.05
  L 719.07 156.80
  A 0.57 0.57 0.0 0 1 719.86 156.68
  L 744.93 174.93
  A 0.57 0.57 0.0 0 0 745.72 174.81
  L 826.65 66.83
  A 0.57 0.57 0.0 0 0 826.19 65.92
  L 603.86 65.92
  A 0.57 0.57 0.0 0 0 603.53 66.95
  L 657.79 106.46
  Z
  M 892.37 84.74
  A 0.32 0.32 0.0 0 0 892.11 84.87
  L 712.33 321.17
  A 0.32 0.32 0.0 0 0 712.59 321.68
  L 761.15 321.68
  A 0.32 0.32 0.0 0 0 761.41 321.55
  L 941.20 85.25
  A 0.32 0.32 0.0 0 0 940.94 84.74
  L 892.37 84.74
  Z
  M 969.78 126.67
  A 0.30 0.30 0.0 0 0 969.25 126.57
  L 821.22 321.15
  A 0.30 0.30 0.0 0 0 821.46 321.63
  L 899.62 321.63
  A 0.30 0.30 0.0 0 0 899.86 321.51
  L 991.72 202.27
  A 0.30 0.30 0.0 0 0 991.77 202.00
  L 969.78 126.67
  Z
  M 750.32 191.80
  A 0.38 0.38 0.0 0 0 749.79 191.87
  L 651.50 321.04
  A 0.38 0.38 0.0 0 0 651.81 321.65
  L 668.41 321.65
  A 0.38 0.38 0.0 0 0 668.71 321.50
  L 761.63 200.88
  A 0.38 0.38 0.0 0 0 761.56 200.35
  L 750.32 191.80
  Z
  M 360.36 363.07
  C 342.50 364.47 324.61 369.62 309.53 379.43
  C 293.09 390.13 281.98 407.31 282.64 427.33
  C 283.14 442.72 292.64 454.49 305.64 461.62
  C 324.71 472.06 347.36 473.64 369.00 471.95
  C 386.85 470.54 404.75 465.40 419.82 455.59
  C 436.27 444.89 447.38 427.71 446.72 407.69
  C 446.22 392.30 436.72 380.53 423.71 373.40
  C 404.65 362.96 381.99 361.38 360.36 363.07
  Z
  M 223.60 415.72
  L 209.01 469.69
  A 0.59 0.59 0.0 0 0 209.58 470.44
  L 246.34 470.46
  A 0.95 0.94 7.7 0 0 247.25 469.77
  L 275.79 365.19
  A 0.50 0.49 7.9 0 0 275.31 364.56
  L 242.29 364.56
  A 4.12 4.09 -66.0 0 0 239.52 365.64
  L 174.39 425.53
  A 0.41 0.41 0.0 0 1 173.76 425.43
  L 140.21 365.52
  A 1.91 1.89 -14.4 0 0 138.55 364.55
  L 106.73 364.56
  A 0.91 0.90 7.5 0 0 105.85 365.23
  L 76.85 469.89
  A 0.42 0.42 0.0 0 0 77.26 470.42
  L 114.07 470.45
  A 0.93 0.92 -82.1 0 0 114.96 469.77
  L 130.00 415.57
  A 0.44 0.44 0.0 0 1 130.81 415.46
  L 156.53 459.40
  A 1.22 1.21 -15.0 0 0 157.58 460.00
  L 173.64 460.00
  A 3.58 3.57 23.5 0 0 176.08 459.04
  L 223.04 415.38
  A 0.34 0.34 0.0 0 1 223.60 415.72
  Z
  M 600.02 415.70
  L 585.44 469.68
  A 0.59 0.59 0.0 0 0 586.01 470.43
  L 622.77 470.45
  A 0.95 0.94 7.7 0 0 623.68 469.76
  L 652.22 365.16
  A 0.50 0.49 7.9 0 0 651.74 364.53
  L 618.72 364.53
  A 4.12 4.09 -66.0 0 0 615.95 365.61
  L 550.81 425.51
  A 0.41 0.41 0.0 0 1 550.18 425.41
  L 516.62 365.49
  A 1.91 1.89 -14.4 0 0 514.96 364.52
  L 483.13 364.54
  A 0.91 0.90 7.5 0 0 482.25 365.21
  L 453.25 469.89
  A 0.42 0.42 0.0 0 0 453.66 470.42
  L 490.48 470.44
  A 0.93 0.92 -82.1 0 0 491.37 469.76
  L 506.41 415.56
  A 0.44 0.44 0.0 0 1 507.22 415.45
  L 532.95 459.39
  A 1.22 1.21 -15.0 0 0 534.00 459.99
  L 550.07 459.99
  A 3.58 3.57 23.5 0 0 552.51 459.03
  L 599.46 415.36
  A 0.34 0.34 0.0 0 1 600.02 415.70
  Z
  M 776.86 406.16
  A 0.47 0.47 0.0 0 0 776.40 405.56
  L 712.37 405.56
  A 0.47 0.47 0.0 0 1 711.91 404.96
  L 716.59 388.07
  A 0.47 0.47 0.0 0 1 717.05 387.73
  L 790.24 387.73
  A 0.47 0.47 0.0 0 0 790.70 387.39
  L 796.85 365.16
  A 0.47 0.47 0.0 0 0 796.40 364.56
  L 682.74 364.56
  A 0.47 0.47 0.0 0 0 682.28 364.90
  L 653.22 469.84
  A 0.47 0.47 0.0 0 0 653.68 470.44
  L 770.27 470.44
  A 0.47 0.47 0.0 0 0 770.73 470.10
  L 776.86 447.96
  A 0.47 0.47 0.0 0 0 776.40 447.36
  L 700.85 447.36
  A 0.47 0.47 0.0 0 1 700.39 446.76
  L 705.51 428.28
  A 0.47 0.47 0.0 0 1 705.97 427.94
  L 770.46 427.94
  A 0.47 0.47 0.0 0 0 770.92 427.60
  L 776.86 406.16
  Z
  M 864.06 428.68
  Q 876.13 443.24 898.30 469.64
  A 2.20 2.18 -19.7 0 0 899.98 470.43
  L 932.05 470.43
  A 1.21 1.21 0.0 0 0 933.22 469.53
  L 962.11 365.24
  A 0.57 0.57 0.0 0 0 961.56 364.52
  L 922.49 364.52
  A 0.97 0.96 -82.1 0 0 921.56 365.23
  L 905.97 421.51
  A 0.54 0.54 0.0 0 1 905.03 421.72
  Q 896.47 411.59 892.05 406.26
  Q 879.97 391.70 857.81 365.30
  A 2.20 2.18 -19.7 0 0 856.12 364.51
  L 824.05 364.51
  A 1.21 1.21 0.0 0 0 822.88 365.41
  L 793.99 469.70
  A 0.57 0.57 0.0 0 0 794.54 470.42
  L 833.61 470.42
  A 0.97 0.96 -82.1 0 0 834.54 469.71
  L 850.13 413.43
  A 0.54 0.54 0.0 0 1 851.07 413.22
  Q 859.63 423.35 864.06 428.68
  Z
  M 971.25 387.56
  A 0.61 0.61 0.0 0 0 971.84 388.33
  L 1015.15 388.33
  A 0.61 0.61 0.0 0 1 1015.74 389.10
  L 993.42 469.67
  A 0.61 0.61 0.0 0 0 994.01 470.44
  L 1034.15 470.44
  A 0.61 0.61 0.0 0 0 1034.73 469.99
  L 1057.23 388.78
  A 0.61 0.61 0.0 0 1 1057.81 388.33
  L 1101.81 388.33
  A 0.61 0.61 0.0 0 0 1102.39 387.88
  L 1108.65 365.32
  A 0.61 0.61 0.0 0 0 1108.06 364.55
  L 978.09 364.55
  A 0.61 0.61 0.0 0 0 977.51 365.00
  L 971.25 387.56
  Z
  M 1162.23 365.16
  A 0.49 0.48 7.7 0 0 1161.76 364.55
  L 1121.62 364.55
  A 0.87 0.86 7.3 0 0 1120.78 365.19
  Q 1110.63 402.02 1107.32 413.48
  Q 1102.82 429.03 1102.91 434.70
  C 1103.13 449.08 1111.91 459.19 1124.49 465.14
  Q 1131.49 468.45 1136.97 469.61
  Q 1163.71 475.28 1190.76 470.04
  C 1211.98 465.94 1229.49 454.42 1238.33 434.54
  Q 1240.69 429.23 1243.55 418.80
  Q 1253.11 383.88 1258.34 365.14
  A 0.47 0.47 0.0 0 0 1257.89 364.54
  L 1218.55 364.54
  A 1.14 1.13 7.7 0 0 1217.45 365.37
  Q 1204.78 411.49 1200.87 425.11
  Q 1199.38 430.29 1195.76 435.85
  C 1187.70 448.26 1170.55 449.56 1157.55 446.38
  C 1145.09 443.34 1143.39 433.09 1146.41 422.21
  Q 1155.50 389.49 1162.23 365.16
  Z
  M 1355.39 459.99
  A 0.40 0.40 0.0 0 0 1355.66 459.88
  L 1403.81 415.63
  A 0.40 0.40 0.0 0 1 1404.47 416.03
  L 1389.54 469.93
  A 0.40 0.40 0.0 0 0 1389.93 470.44
  L 1427.33 470.44
  A 0.40 0.40 0.0 0 0 1427.71 470.15
  L 1456.81 365.06
  A 0.40 0.40 0.0 0 0 1456.42 364.55
  L 1421.63 364.55
  A 0.40 0.40 0.0 0 0 1421.36 364.66
  L 1355.15 425.52
  A 0.40 0.40 0.0 0 1 1354.53 425.42
  L 1320.54 364.75
  A 0.40 0.40 0.0 0 0 1320.20 364.55
  L 1287.10 364.55
  A 0.40 0.40 0.0 0 0 1286.72 364.84
  L 1257.61 469.94
  A 0.40 0.40 0.0 0 0 1258.00 470.45
  L 1295.26 470.45
  A 0.40 0.40 0.0 0 0 1295.64 470.16
  L 1310.85 415.24
  A 0.40 0.40 0.0 0 1 1311.58 415.15
  L 1337.35 459.79
  A 0.40 0.40 0.0 0 0 1337.70 459.99
  L 1355.39 459.99
  Z"
/>
<path fill="#c43236" d="
  M 657.79 106.46
  L 603.53 66.95
  A 0.57 0.57 0.0 0 1 603.86 65.92
  L 826.19 65.92
  A 0.57 0.57 0.0 0 1 826.65 66.83
  L 745.72 174.81
  A 0.57 0.57 0.0 0 1 744.93 174.93
  L 719.86 156.68
  A 0.57 0.57 0.0 0 0 719.07 156.80
  L 594.63 321.05
  A 0.57 0.57 0.0 0 1 594.18 321.28
  L 496.92 321.28
  A 0.57 0.57 0.0 0 1 496.46 320.37
  L 657.91 107.26
  A 0.57 0.57 0.0 0 0 657.79 106.46
  Z"
/>
<path fill="#464646" d="
  M 892.37 84.74
  L 940.94 84.74
  A 0.32 0.32 0.0 0 1 941.20 85.25
  L 761.41 321.55
  A 0.32 0.32 0.0 0 1 761.15 321.68
  L 712.59 321.68
  A 0.32 0.32 0.0 0 1 712.33 321.17
  L 892.11 84.87
  A 0.32 0.32 0.0 0 1 892.37 84.74
  Z"
/>
<path fill="#000000" d="
  M 969.78 126.67
  L 991.77 202.00
  A 0.30 0.30 0.0 0 1 991.72 202.27
  L 899.86 321.51
  A 0.30 0.30 0.0 0 1 899.62 321.63
  L 821.46 321.63
  A 0.30 0.30 0.0 0 1 821.22 321.15
  L 969.25 126.57
  A 0.30 0.30 0.0 0 1 969.78 126.67
  Z"
/>
<path fill="#464646" d="
  M 750.32 191.80
  L 761.56 200.35
  A 0.38 0.38 0.0 0 1 761.63 200.88
  L 668.71 321.50
  A 0.38 0.38 0.0 0 1 668.41 321.65
  L 651.81 321.65
  A 0.38 0.38 0.0 0 1 651.50 321.04
  L 749.79 191.87
  A 0.38 0.38 0.0 0 1 750.32 191.80
  Z"
/>
<path fill="#000000" d="
  M 369.00 471.95
  C 347.36 473.64 324.71 472.06 305.64 461.62
  C 292.64 454.49 283.14 442.72 282.64 427.33
  C 281.98 407.31 293.09 390.13 309.53 379.43
  C 324.61 369.62 342.50 364.47 360.36 363.07
  C 381.99 361.38 404.65 362.96 423.71 373.40
  C 436.72 380.53 446.22 392.30 446.72 407.69
  C 447.38 427.71 436.27 444.89 419.82 455.59
  C 404.75 465.40 386.85 470.54 369.00 471.95
  Z
  M 359.62 388.12
  C 342.83 390.96 328.07 401.27 324.88 418.66
  C 319.89 445.73 351.42 450.03 369.74 446.93
  C 386.53 444.09 401.28 433.77 404.48 416.39
  C 409.46 389.31 377.94 385.02 359.62 388.12
  Z"
/>
<path fill="#000000" d="
  M 223.60 415.72
  A 0.34 0.34 0.0 0 0 223.04 415.38
  L 176.08 459.04
  A 3.58 3.57 23.5 0 1 173.64 460.00
  L 157.58 460.00
  A 1.22 1.21 -15.0 0 1 156.53 459.40
  L 130.81 415.46
  A 0.44 0.44 0.0 0 0 130.00 415.57
  L 114.96 469.77
  A 0.93 0.92 -82.1 0 1 114.07 470.45
  L 77.26 470.42
  A 0.42 0.42 0.0 0 1 76.85 469.89
  L 105.85 365.23
  A 0.91 0.90 7.5 0 1 106.73 364.56
  L 138.55 364.55
  A 1.91 1.89 -14.4 0 1 140.21 365.52
  L 173.76 425.43
  A 0.41 0.41 0.0 0 0 174.39 425.53
  L 239.52 365.64
  A 4.12 4.09 -66.0 0 1 242.29 364.56
  L 275.31 364.56
  A 0.50 0.49 7.9 0 1 275.79 365.19
  L 247.25 469.77
  A 0.95 0.94 7.7 0 1 246.34 470.46
  L 209.58 470.44
  A 0.59 0.59 0.0 0 1 209.01 469.69
  L 223.60 415.72
  Z"
/>
<path fill="#000000" d="
  M 600.02 415.70
  A 0.34 0.34 0.0 0 0 599.46 415.36
  L 552.51 459.03
  A 3.58 3.57 23.5 0 1 550.07 459.99
  L 534.00 459.99
  A 1.22 1.21 -15.0 0 1 532.95 459.39
  L 507.22 415.45
  A 0.44 0.44 0.0 0 0 506.41 415.56
  L 491.37 469.76
  A 0.93 0.92 -82.1 0 1 490.48 470.44
  L 453.66 470.42
  A 0.42 0.42 0.0 0 1 453.25 469.89
  L 482.25 365.21
  A 0.91 0.90 7.5 0 1 483.13 364.54
  L 514.96 364.52
  A 1.91 1.89 -14.4 0 1 516.62 365.49
  L 550.18 425.41
  A 0.41 0.41 0.0 0 0 550.81 425.51
  L 615.95 365.61
  A 4.12 4.09 -66.0 0 1 618.72 364.53
  L 651.74 364.53
  A 0.50 0.49 7.9 0 1 652.22 365.16
  L 623.68 469.76
  A 0.95 0.94 7.7 0 1 622.77 470.45
  L 586.01 470.43
  A 0.59 0.59 0.0 0 1 585.44 469.68
  L 600.02 415.70
  Z"
/>
<path fill="#000000" d="
  M 776.86 406.16
  L 770.92 427.60
  A 0.47 0.47 0.0 0 1 770.46 427.94
  L 705.97 427.94
  A 0.47 0.47 0.0 0 0 705.51 428.28
  L 700.39 446.76
  A 0.47 0.47 0.0 0 0 700.85 447.36
  L 776.40 447.36
  A 0.47 0.47 0.0 0 1 776.86 447.96
  L 770.73 470.10
  A 0.47 0.47 0.0 0 1 770.27 470.44
  L 653.68 470.44
  A 0.47 0.47 0.0 0 1 653.22 469.84
  L 682.28 364.90
  A 0.47 0.47 0.0 0 1 682.74 364.56
  L 796.40 364.56
  A 0.47 0.47 0.0 0 1 796.85 365.16
  L 790.70 387.39
  A 0.47 0.47 0.0 0 1 790.24 387.73
  L 717.05 387.73
  A 0.47 0.47 0.0 0 0 716.59 388.07
  L 711.91 404.96
  A 0.47 0.47 0.0 0 0 712.37 405.56
  L 776.40 405.56
  A 0.47 0.47 0.0 0 1 776.86 406.16
  Z"
/>
<path fill="#000000" d="
  M 864.06 428.68
  Q 859.63 423.35 851.07 413.22
  A 0.54 0.54 0.0 0 0 850.13 413.43
  L 834.54 469.71
  A 0.97 0.96 -82.1 0 1 833.61 470.42
  L 794.54 470.42
  A 0.57 0.57 0.0 0 1 793.99 469.70
  L 822.88 365.41
  A 1.21 1.21 0.0 0 1 824.05 364.51
  L 856.12 364.51
  A 2.20 2.18 -19.7 0 1 857.81 365.30
  Q 879.97 391.70 892.05 406.26
  Q 896.47 411.59 905.03 421.72
  A 0.54 0.54 0.0 0 0 905.97 421.51
  L 921.56 365.23
  A 0.97 0.96 -82.1 0 1 922.49 364.52
  L 961.56 364.52
  A 0.57 0.57 0.0 0 1 962.11 365.24
  L 933.22 469.53
  A 1.21 1.21 0.0 0 1 932.05 470.43
  L 899.98 470.43
  A 2.20 2.18 -19.7 0 1 898.30 469.64
  Q 876.13 443.24 864.06 428.68
  Z"
/>
<path fill="#000000" d="
  M 971.25 387.56
  L 977.51 365.00
  A 0.61 0.61 0.0 0 1 978.09 364.55
  L 1108.06 364.55
  A 0.61 0.61 0.0 0 1 1108.65 365.32
  L 1102.39 387.88
  A 0.61 0.61 0.0 0 1 1101.81 388.33
  L 1057.81 388.33
  A 0.61 0.61 0.0 0 0 1057.23 388.78
  L 1034.73 469.99
  A 0.61 0.61 0.0 0 1 1034.15 470.44
  L 994.01 470.44
  A 0.61 0.61 0.0 0 1 993.42 469.67
  L 1015.74 389.10
  A 0.61 0.61 0.0 0 0 1015.15 388.33
  L 971.84 388.33
  A 0.61 0.61 0.0 0 1 971.25 387.56
  Z"
/>
<path fill="#000000" d="
  M 1162.23 365.16
  Q 1155.50 389.49 1146.41 422.21
  C 1143.39 433.09 1145.09 443.34 1157.55 446.38
  C 1170.55 449.56 1187.70 448.26 1195.76 435.85
  Q 1199.38 430.29 1200.87 425.11
  Q 1204.78 411.49 1217.45 365.37
  A 1.14 1.13 7.7 0 1 1218.55 364.54
  L 1257.89 364.54
  A 0.47 0.47 0.0 0 1 1258.34 365.14
  Q 1253.11 383.88 1243.55 418.80
  Q 1240.69 429.23 1238.33 434.54
  C 1229.49 454.42 1211.98 465.94 1190.76 470.04
  Q 1163.71 475.28 1136.97 469.61
  Q 1131.49 468.45 1124.49 465.14
  C 1111.91 459.19 1103.13 449.08 1102.91 434.70
  Q 1102.82 429.03 1107.32 413.48
  Q 1110.63 402.02 1120.78 365.19
  A 0.87 0.86 7.3 0 1 1121.62 364.55
  L 1161.76 364.55
  A 0.49 0.48 7.7 0 1 1162.23 365.16
  Z"
/>
<path fill="#000000" d="
  M 1355.39 459.99
  L 1337.70 459.99
  A 0.40 0.40 0.0 0 1 1337.35 459.79
  L 1311.58 415.15
  A 0.40 0.40 0.0 0 0 1310.85 415.24
  L 1295.64 470.16
  A 0.40 0.40 0.0 0 1 1295.26 470.45
  L 1258.00 470.45
  A 0.40 0.40 0.0 0 1 1257.61 469.94
  L 1286.72 364.84
  A 0.40 0.40 0.0 0 1 1287.10 364.55
  L 1320.20 364.55
  A 0.40 0.40 0.0 0 1 1320.54 364.75
  L 1354.53 425.42
  A 0.40 0.40 0.0 0 0 1355.15 425.52
  L 1421.36 364.66
  A 0.40 0.40 0.0 0 1 1421.63 364.55
  L 1456.42 364.55
  A 0.40 0.40 0.0 0 1 1456.81 365.06
  L 1427.71 470.15
  A 0.40 0.40 0.0 0 1 1427.33 470.44
  L 1389.93 470.44
  A 0.40 0.40 0.0 0 1 1389.54 469.93
  L 1404.47 416.03
  A 0.40 0.40 0.0 0 0 1403.81 415.63
  L 1355.66 459.88
  A 0.40 0.40 0.0 0 1 1355.39 459.99
  Z"
/>
<path fill="#ffffff" d="
  M 359.62 388.12
  C 377.94 385.02 409.46 389.31 404.48 416.39
  C 401.28 433.77 386.53 444.09 369.74 446.93
  C 351.42 450.03 319.89 445.73 324.88 418.66
  C 328.07 401.27 342.83 390.96 359.62 388.12
  Z"
/>
</svg>
